<svg height="512" viewBox="0 0 60 60" width="512" xmlns="http://www.w3.org/2000/svg"><g id="008---Light-Sabers" fill="none"><g id="Icons"><path id="Shape" d="m37.39 33.15-4.24 4.24-31.27-31.27c-.80261271-.74788232-1.13299673-1.87422217-.86154217-2.93715563.27145456-1.06293347 1.10145307-1.89293198 2.16438654-2.16438654 1.06293346-.27145456 2.18927331.05892946 2.93715563.86154217z" fill="#0377bc"/><path id="Shape" d="m34.63 34.53-2.17 2.17-30.58-30.58c-.99335721-.99387387-1.16375567-2.54408423-.41-3.73.71498546.04992891 1.38710712.35931824 1.89.87z" fill="#02a9f4"/><path id="Shape" d="m26.34 39.32-4.25 4.24c-9.34-3.1-8.51-2.78-8.41-2.9l7-7c.5064386-.5018619 1.2417506-.6961671 1.93-.51.75.19.91.52 3.73 3.34.3755541.3751365.5865733.8841815.5865733 1.415s-.2110192 1.0398635-.5865733 1.415z" fill="#707070"/><path id="Shape" d="m25.62 35.77c-.0701505.5771307-.334656 1.113195-.75 1.52l-5.4 5.4c-6.51-2.17-5.89-1.91-5.79-2l7-7c.5064386-.5018619 1.2417506-.6961671 1.93-.51.74.16 1.04.62 3.01 2.59z" fill="#9e9e9e"/><path id="Shape" d="m8.66 57-1.42 1.41c-.37513651.3755541-.8841815.5865733-1.415.5865733s-1.03986349-.2110192-1.415-.5865733l-2.82-2.82c-.37555409-.3751365-.58657331-.8841815-.58657331-1.415s.21101922-1.0398635.58657331-1.415l1.41-1.42z" fill="#37474f"/><path id="Shape" d="m16.4395296 31.0801414h2v8h-2c-1.1045695 0-2-.8954305-2-2v-4c0-1.1045695.8954305-2 2-2z" fill="#37474f" transform="matrix(.707 .707 -.707 .707 29.62 -1.35)"/><path id="Shape" d="m12.9 57-.71.71c-.3751365.3755541-.8841815.5865733-1.415.5865733s-1.03986349-.2110192-1.415-.5865733c-7.19-7.24-7.12-7.07-7.2-7.23-.64515513-.7925115-.58909439-1.9439127.13-2.67l.71-.71c.37513651-.3755541.8841815-.5865733 1.415-.5865733s1.03986349.2110192 1.415.5865733c8.35 8.38 3.51 3.51 7.07 7.07.3755541.3751365.5865733.8841815.5865733 1.415s-.2110192 1.0398635-.5865733 1.415z" fill="#707070"/><path id="Shape" d="m10.55 54.63-.71.71c-.37513651.3755541-.8841815.5865733-1.415.5865733s-1.03986349-.2110192-1.415-.5865733l-4.85-4.86c-.64515513-.7925115-.58909439-1.9439127.13-2.67l.71-.71c.37513651-.3755541.8841815-.5865733 1.415-.5865733s1.03986349.2110192 1.415.5865733l4.84 4.9c.6240027.783101.5727231 1.9069778-.12 2.63z" fill="#9e9e9e"/><path id="Shape" d="m59 4c-.0007002.7953814-.3172301 1.55793057-.88 2.12l-31.27 31.27-4.24-4.24 31.27-31.27c.8579473-.85688121 2.1473683-1.11303278 3.2676941-.6491479 1.1203257.46388487 1.8512394 1.55658128 1.8523059 2.7691479z" fill="#c81e1e"/><path id="Shape" d="m56.39 3.81-31.27 31.27-2.22-2.22 31-31c.8837198-.88313642 2.2222445-1.12614239 3.36-.61.1327766.94305248-.1901014 1.89313009-.87 2.56z" fill="#f44335"/><path id="Shape" d="m22.09 45-9.19 9.17-7.07-7.07 6.36-6.36c.2613989-.2619438.6460862-.3581156 1-.25 8 2.68 6.51 2.16 8.48 2.83.3433349.0983434.6081607.3723264.6947803.7188049s-.0181169.7128522-.2747803.9611951z" fill="#607d8b"/><path id="Shape" d="m21.7 43.32c-2-.67-.44-.15-8.48-2.83-.3539138-.1081156-.7386011-.0119438-1 .25l-.3.3c6.14 2.05 5 1.66 6.81 2.28.333771.1129298.5834758.3931838.6573051.7377203.0738293.3445366-.0391145.702501-.2973051.9422797l-7.69 7.67 1.5 1.5 9.19-9.17c.257298-.2440756.3660743-.6061708.2858778-.9516324-.0801964-.3454615-.3373673-.6226047-.6758778-.7283676z" fill="#37474f"/><path id="Shape" d="m46.39 40.74-8.48 2.82-4.25-4.24c-.5018619-.5064386-.6961671-1.2417506-.51-1.93.19-.75.52-.91 3.34-3.73.6695137-.6701531 1.7173389-.7786928 2.51-.26.4.32 7.3 7.24 7.39 7.34z" fill="#707070"/><path id="Shape" d="m44.27 38.66-8.45 2.81-2.16-2.15c-.3755541-.3751365-.5865733-.8841815-.5865733-1.415s.2110192-1.0398635.5865733-1.415c3-3 3.06-3.17 3.73-3.34.5721331-.1556609 1.1838419-.049436 1.67.29z" fill="#9e9e9e"/><path id="Shape" d="m57 51.34 1.41 1.42c.3755541.3751365.5865733.8841815.5865733 1.415s-.2110192 1.0398635-.5865733 1.415l-2.82 2.82c-.3751365.3755541-.8841815.5865733-1.415.5865733s-1.0398635-.2110192-1.415-.5865733l-1.42-1.41z" fill="#37474f"/><path id="Shape" d="m43.5631227 31.0762655h2v8h-2c-1.1045695 0-2-.8954305-2-2v-4c0-1.1045695.8954305-2 2-2z" fill="#37474f" transform="matrix(-.707 .707 -.707 -.707 99.17 29.075)"/><path id="Shape" d="m57.71 50.64c-2.21 2.19-4.88 4.86-7.07 7.07-.3751365.3755541-.8841815.5865733-1.415.5865733s-1.0398635-.2110192-1.415-.5865733c-.4451036-.3591945-.8212159-.796298-1.11-1.29-.3504747-.7598299-.1908848-1.6575229.4-2.25 5.36-5.36-.13.15 7.07-7.07.3751365-.3755541.8841815-.5865733 1.415-.5865733s1.0398635.2110192 1.415.5865733l.71.71c.3755541.3751365.5865733.8841815.5865733 1.415s-.2110192 1.0398635-.5865733 1.415z" fill="#707070"/><path id="Shape" d="m56 49-7 7c-.5924771.5908848-1.4901701.7504747-2.25.4-.3504747-.7598299-.1908848-1.6575229.4-2.25 6.16-6.16-.26.29 7.07-7.07.5924771-.5908848 1.4901701-.7504747 2.25-.4.3669306.7929746.1766246 1.7323577-.47 2.32z" fill="#9e9e9e"/><path id="Shape" d="m54.17 47.1-7.07 7.07-9.19-9.17c-.2471773-.2448227-.3493485-.600516-.2697794-.9391951.0795692-.3386792.3294418-.6116634.6597794-.7208049l8.48-2.83c.3539138-.1081156.7386011-.0119438 1 .25z" fill="#607d8b"/><path id="Shape" d="m47.81 40.74c-.2613989-.2619438-.6460862-.3581156-1-.25l-1.66.56 6.05 6.05-5.6 5.57 1.5 1.5 7.07-7.07z" fill="#37474f"/></g><g id="Layer_2" fill="#000" transform="translate(0 -1)"><path id="Shape" d="m60 5c.001274-1.61882673-.9733095-3.07881917-2.4688395-3.69848972-1.49553-.61967056-3.2171142-.27683104-4.3611605.86848972l-23.17 23.18-23.17-23.18c-1.1440463-1.14532076-2.86563045-1.48816028-4.36116046-.86848972-1.49553.61967055-2.4701135 2.07966299-2.46883954 3.69848972-.00083446 1.06118518.42004572 2.07921158 1.17 2.83l23.17 23.17-2.1 2.1c-.4938209-.0299889-.9868758.0700013-1.43.29l-.81-.85c-1.1712702-1.1698135-3.0687298-1.1698135-4.24 0l-2.86 2.83c-1.1698135 1.1712702-1.1698135 3.0687298 0 4.24l.71.71-.2.2c-.6851562-.1823393-1.4156398.0116954-1.92.51l-5.86 5.86c-.59539454-.1653895-1.22460546-.1653895-1.82 0-.82868575.2081118-1.59196042.6206927-2.22 1.2-1.16981351 1.1712702-1.16981351 3.0687298 0 4.24l-.71.71c-1.16981351 1.1712702-1.16981351 3.0687298 0 4.24l2.83 2.83c1.17127019 1.1698135 3.06872981 1.1698135 4.24 0l.71-.71c.45367774.4329822 1.06331978.6638525 1.69.64.3376674-.0073237.6733035-.0543128 1-.14.8307121-.2105111 1.5966706-.622686 2.23-1.2.8917146-.9019019 1.1199184-2.2671213.57-3.41l8.62-8.61c.4914756-.4919194.6921678-1.2038088.53-1.88 0 0 0 0 0-.05l3.7-3.75c.5936638-.6017194.9059335-1.4259662.86-2.27l2.1-2.1 2.1 2.1c-.0250871.856161.3169805 1.6822179.94 2.27l3.73 3.73v.05c-.1621678.6761912.0385244 1.3880806.53 1.88l8.62 8.61c-.5499184 1.1428787-.3217146 2.5080981.57 3.41.6333294.577314 1.3992879.9894889 2.23 1.2.3266965.0856872.6623326.1326763 1 .14.6266802.0238525 1.2363223-.2070178 1.69-.64l.71.71c1.1712702 1.1698135 3.0687298 1.1698135 4.24 0l2.83-2.83c1.1698135-1.1712702 1.1698135-3.0687298 0-4.24l-.71-.71c1.1698135-1.1712702 1.1698135-3.0687298 0-4.24-.6280396-.5793073-1.3913142-.9918882-2.22-1.2-.591975-.1655643-1.218025-.1655643-1.81 0l-5.9-5.87c-.5043602-.4983046-1.2348438-.6923393-1.92-.51l-.2-.2.71-.71c1.1698135-1.1712702 1.1698135-3.0687298 0-4.24l-2.83-2.83c-1.1712702-1.1698135-3.0687298-1.1698135-4.24 0l-.84.85c-.4431242-.2199987-.9361791-.3199889-1.43-.29l-2.1-2.07 23.17-23.17c.7499543-.75078842 1.1708345-1.76881482 1.17-2.83zm-57.42 1.41c-.71461718-.79144873-.68262495-2.00436275.07272061-2.75703925.75534556-.75267649 1.96836523-.78037504 2.75727939-.06296075l23.18 23.17-2.83 2.83zm12.42 32.5-.71-.71c-.3877236-.3900375-.3877236-1.0199625 0-1.41l2.85-2.79c.1877666-.1893127.4433625-.2957983.71-.2957983s.5222334.1064856.71.2957983l.7.7-1.06 1.02zm-8.46 15.55-1.42-1.41 2.12-2.12 1.42 1.41 1.41 1.42-2.07 2.12zm-3.54-4.95c.58-.57 1.87-.9 2.12-.7l.71.7-2.12 2.13-.71-.71c-.18931265-.1877666-.29579832-.4433625-.29579832-.71s.10648567-.5222334.29579832-.71zm2.12 9.2-2.83-2.83c-.18931265-.1877666-.29579832-.4433625-.29579832-.71s.10648567-.5222334.29579832-.71l.71-.7 2.12 2.12 2.12 2.12-.71.71c-.39003745.3877236-1.01996255.3877236-1.41 0zm7.07-1.42c-.5701914.5330311-1.3437928.7921145-2.12.71l-.71-.71 2.13-2.12.7.71c.3877236.3900375.3877236 1.0199625 0 1.41zm.71-3.53-5.66-5.66 5.66-5.66c.2142957.2101658.5116612.3129588.81.28l7.67 2.55zm12.73-14.15-3.72 3.73-6.37-2.12 5.85-5.85c.3900375-.3877236 1.0199625-.3877236 1.41 0l2.83 2.83c.3877236.3900375.3877236 1.0199625 0 1.41zm8.49-1c.0442299-.1656755.1303199-.317194.25-.44l2.83-2.83c.3900375-.3877236 1.0199625-.3877236 1.41 0l5.85 5.85-6.37 2.12-3.72-3.73c-.2403712-.2489667-.3349323-.6045164-.25-.94zm18.64 12.32 2.12 2.12-1.42 1.41-1.41 1.42-2.12-2.12 1.41-1.42zm-4.95 6.36c-.3877236-.3900375-.3877236-1.0199625 0-1.41l.7-.71 2.13 2.12-.71.71c-.7762072.0821145-1.5498086-.1769689-2.12-.71zm9.9-1.41-2.83 2.83c-.1877666.1893127-.4433625.2957983-.71.2957983s-.5222334-.1064856-.71-.2957983l-.7-.71 2.12-2.12 2.12-2.12.71.7c.1893127.1877666.2957983.4433625.2957983.71s-.1064856.5222334-.2957983.71zm-.71-6.37c.1893127.1877666.2957983.4433625.2957983.71s-.1064856.5222334-.2957983.71l-.71.71-2.12-2.13.71-.7c.0781116-.0470645.1691636-.0680765.26-.06.6858434.0456548 1.3384316.3123037 1.86.76zm-4.24-1.41-2.83 2.83-2.12 2.12-.71.71-8.48-8.49 7.67-2.55c.2983388.0329588.5957043-.0698342.81-.28zm-9.9-14.1 2.83 2.83c.3877236.3900375.3877236 1.0199625 0 1.41l-.71.71-3.18-3.23-1.06-1.06.7-.7c.1930495-.1841234.4516666-.2834768.718337-.275965.2666705.0075119.5192845.1212662.701663.315965zm-7.07 0-2.79 2.79-1.54-1.55 2.82-2.82zm21.63-27.58-23.88 23.87-4.24 4.24-2.3 2.26-2.79-2.79 2.25-2.25 4.23-4.23 23.9-23.93c.7814829-.78148286 2.048517-.78148284 2.8299999.00000006s.781483 2.04851701.0000001 2.82999994z"/><path id="Shape" d="m5.63 22.93 5 2c.1177876.0465537.2433466.0703081.37.07.480605.0011766.8940741-.339705.9845632-.8117159.0904892-.4720108-.1675978-.9416363-.6145632-1.1182841l-5-2c-.51362482-.2043454-1.09565464.0463752-1.3.56s.04637518 1.0956546.56 1.3z"/><path id="Shape" d="m5.07 30.37c.1516273.380721.52019615.6303967.93.63.12665336.0003081.2522124-.0234463.37-.07l5-2c.332257-.1321883.5687535-.4315923.6204036-.7854294s-.0893931-.7083511-.37-.93-.6581466-.2767589-.9904036-.1445706l-5 2c-.24680768.0979351-.44453219.2900079-.54958156.5338726-.10504937.2438646-.10879764.5194964-.01041844.7661274z"/><path id="Shape" d="m34.63 14.93c.1177876.0465537.2433466.0703081.37.07.4098038.0003967.7783727-.249279.93-.63l2-5c.2043453-.51362481-.0463752-1.0956546-.56-1.29999995s-1.0956546.04637516-1.3.55999995l-2 5c-.0983792.246631-.0946309.5222628.0104184.7661274.1050494.2438647.3027739.4359375.5495816.5338726z"/><path id="Shape" d="m24.07 14.37c.1516273.380721.5201962.6303967.93.63.1266534.0003081.2522124-.0234463.37-.07.2468077-.0979351.4445322-.2900079.5495816-.5338726.1050493-.2438646.1087976-.5194964.0104184-.7661274l-2-5c-.2043454-.51362482-.7863752-.76434536-1.3-.56s-.7643454.78637518-.56 1.3z"/><path id="Shape" d="m54.93 21.63c-.0979351-.2468077-.2900079-.4445322-.5338726-.5495816-.2438646-.1050493-.5194964-.1087976-.7661274-.0104184l-5 2c-.4469654.1766478-.7050524.6462733-.6145632 1.1182841.0904891.4720109.5039582.8128925.9845632.8117159.1266534.0003081.2522124-.0234463.37-.07l5-2c.2468077-.0979351.4445322-.2900079.5495816-.5338726.1050493-.2438646.1087976-.5194964.0104184-.7661274z"/><path id="Shape" d="m54.37 29.07-5-2c-.5136248-.2043453-1.0956546.0463752-1.3.56-.2043453.5136248.0463752 1.0956546.56 1.3l5 2c.1177876.0465537.2433466.0703081.37.07.480605.0011766.8940741-.339705.9845632-.8117159.0904892-.4720108-.1675978-.9416363-.6145632-1.1182841z"/><path id="Shape" d="m30 12c.5522847 0 1-.4477153 1-1v-6c0-.55228475-.4477153-1-1-1s-1 .44771525-1 1v6c0 .5522847.4477153 1 1 1z"/></g></g></svg>