<?xml version="1.0" encoding="iso-8859-1"?>
<!-- Generator: Adobe Illustrator 19.0.0, SVG Export Plug-In . SVG Version: 6.00 Build 0)  -->
<svg version="1.1" id="Capa_1" xmlns="http://www.w3.org/2000/svg" xmlns:xlink="http://www.w3.org/1999/xlink" x="0px" y="0px"
	 viewBox="0 0 512 512" style="enable-background:new 0 0 512 512;" xml:space="preserve">
<g>
	<g>
		<g>
			<path d="M256,0C114.844,0,0,114.844,0,256s114.844,256,256,256s256-114.844,256-256S397.156,0,256,0z M425.531,346.135
				c-10.156,19.094-18.49,28.635-23.521,33.208l-13.656-14.354c-2.021-2.125-4.115-3.156-7.781-3.313
				c-2.938,0.01-5.74,1.24-7.74,3.385c-20.479,21.917-46.531,37.573-75.365,45.302c-2.844,0.76-5.24,2.656-6.635,5.25
				c-1.385,2.583-1.656,5.635-0.729,8.427l6.26,18.781C289.969,445.125,277.625,448,256,448c-21.76,0-34.115-2.917-40.385-5.125
				l6.281-18.833c0.927-2.792,0.656-5.844-0.729-8.427c-1.396-2.594-3.802-4.49-6.635-5.25
				c-25.052-6.708-48.385-19.646-67.458-37.417c-2.146-2-4.958-3-7.969-2.844c-2.927,0.198-5.656,1.583-7.521,3.854l-12.625,15.281
				c-5.344-4.219-14.323-13.156-25.792-31.49c-11.521-18.458-15.594-30.49-17.042-36.969l19.135-4.625
				c2.854-0.688,5.302-2.521,6.76-5.073c1.458-2.552,1.802-5.594,0.938-8.406C98.344,287.531,96,271.823,96,256
				c0-11.677,1.406-23.75,4.188-35.885c0.656-2.865,0.104-5.875-1.531-8.313c-1.625-2.438-4.198-4.104-7.094-4.594l-19.469-3.281
				c0.979-6.729,4.219-18.979,14.375-38.063c10.219-19.219,18.594-28.76,23.479-33.25l13.698,14.396
				c2.01,2.115,4.813,3.313,7.729,3.313c0.01,0,0.031,0,0.052,0c2.938-0.01,5.74-1.24,7.74-3.385
				c20.479-21.917,46.531-37.573,75.365-45.302c2.844-0.76,5.24-2.656,6.635-5.25c1.385-2.583,1.656-5.635,0.729-8.427l-6.26-18.781
				C222.031,66.875,234.375,64,256,64c21.76,0,34.115,2.917,40.385,5.125l-6.281,18.833c-0.927,2.792-0.656,5.844,0.729,8.427
				c1.396,2.594,3.802,4.49,6.635,5.25c25.052,6.708,48.385,19.646,67.458,37.417c2.146,2.01,4.958,3,7.969,2.844
				c2.927-0.198,5.656-1.583,7.521-3.854l12.625-15.281c5.344,4.219,14.323,13.156,25.792,31.49
				c11.521,18.458,15.594,30.479,17.042,36.969l-19.146,4.625c-2.854,0.688-5.292,2.521-6.75,5.073
				c-1.458,2.552-1.802,5.594-0.938,8.406C413.656,224.469,416,240.177,416,256c0,11.677-1.406,23.75-4.188,35.885
				c-0.656,2.865-0.104,5.875,1.531,8.313c1.625,2.438,4.198,4.104,7.094,4.594l19.469,3.281
				C438.927,314.802,435.688,327.042,425.531,346.135z"/>
			<path d="M402.146,217.917c1.031-2.938,0.729-6.177-0.823-8.875l-32-55.417c-1.563-2.698-4.219-4.573-7.271-5.146
				c-3.063-0.573-6.219,0.219-8.646,2.156l-46.385,37.219c-5.385-4.01-11.24-7.354-17.542-10.01l9.063-58.885
				c0.479-3.083-0.417-6.208-2.448-8.573c-2.021-2.365-4.979-3.719-8.094-3.719h-64c-3.115,0-6.073,1.354-8.094,3.719
				c-2.031,2.365-2.927,5.49-2.448,8.573l9.063,58.885c-6.302,2.656-12.156,6-17.542,10.01l-46.385-37.219
				c-2.417-1.938-5.563-2.729-8.646-2.156c-3.052,0.573-5.708,2.448-7.271,5.146l-32,55.417c-1.552,2.698-1.854,5.938-0.823,8.875
				c1.031,2.927,3.292,5.271,6.198,6.396l55.302,21.521c-0.458,3.49-0.688,6.865-0.688,10.167s0.229,6.677,0.688,10.167
				l-55.302,21.521c-2.906,1.125-5.167,3.469-6.198,6.396c-1.031,2.938-0.729,6.177,0.823,8.875l32,55.417
				c1.563,2.698,4.219,4.573,7.271,5.146c3.083,0.604,6.229-0.198,8.646-2.156l46.385-37.219c5.385,4.01,11.24,7.354,17.542,10.01
				l-9.063,58.885c-0.479,3.083,0.417,6.208,2.448,8.573c2.021,2.365,4.979,3.719,8.094,3.719h64c3.115,0,6.073-1.354,8.094-3.719
				c2.031-2.365,2.927-5.49,2.448-8.573l-9.063-58.885c6.302-2.656,12.156-6,17.542-10.01l46.385,37.219
				c2.427,1.958,5.583,2.76,8.646,2.156c3.052-0.573,5.708-2.448,7.271-5.146l32-55.417c1.552-2.698,1.854-5.938,0.823-8.875
				c-1.031-2.927-3.292-5.271-6.198-6.396l-55.302-21.521c0.458-3.49,0.688-6.865,0.688-10.167s-0.229-6.677-0.688-10.167
				l55.302-21.521C398.854,223.188,401.115,220.844,402.146,217.917z"/>
		</g>
	</g>
</g>
<g>
</g>
<g>
</g>
<g>
</g>
<g>
</g>
<g>
</g>
<g>
</g>
<g>
</g>
<g>
</g>
<g>
</g>
<g>
</g>
<g>
</g>
<g>
</g>
<g>
</g>
<g>
</g>
<g>
</g>
</svg>
