<svg id="Layer_1" enable-background="new 0 0 512 512" height="512" viewBox="0 0 512 512" width="512" xmlns="http://www.w3.org/2000/svg"><g><path d="m159.6 238.867c-70.286 0-127.467-57.181-127.467-127.467v-96.4c0-8.284 6.716-15 15-15 44.846 0 87.079 23.898 110.218 62.369 0 0 63.312 105.581 63.312 105.582 3.54 5.902 2.61 13.456-2.257 18.322l-48.2 48.2c-2.812 2.813-6.628 4.394-10.606 4.394z" fill="#e66400"/><path d="m352.4 238.867c-3.978 0-7.793-1.581-10.606-4.394l-48.2-48.2c-4.867-4.867-5.797-12.42-2.257-18.322 0 0 63.3-105.562 63.3-105.562 23.151-38.491 65.384-62.389 110.23-62.389 8.284 0 15 6.716 15 15v96.4c0 70.286-57.181 127.467-127.467 127.467z" fill="#b83b00"/><path d="m256 512c-79.145 0-143.533-64.381-143.533-143.517v-99.429c0-12.472 4.851-24.166 13.66-32.927l71.066-71.067c2.813-2.813 6.628-4.394 10.606-4.394h96.4c3.978 0 7.793 1.581 10.606 4.394l71.354 71.385c8.602 8.531 13.373 19.999 13.373 32.231v99.79c.001 79.145-64.387 143.534-143.532 143.534z" fill="#ff9600"/><path d="m399.533 368.467v-99.79c0-12.232-4.771-23.701-13.373-32.231l-71.354-71.385c-2.813-2.813-6.628-4.394-10.606-4.394h-48.2v351.333c79.145 0 143.533-64.389 143.533-143.533z" fill="#e66400"/><path d="m191.733 319.2c-8.284 0-15-6.716-15-15v-16.067c0-8.284 6.716-15 15-15s15 6.716 15 15v16.067c0 8.284-6.715 15-15 15z" fill="#403b40"/><path d="m320.267 319.2c-8.284 0-15-6.716-15-15v-16.067c0-8.284 6.716-15 15-15s15 6.716 15 15v16.067c0 8.284-6.716 15-15 15z" fill="#2e2e2e"/><path d="m256 447.733c-3.318 0-6.635-1.097-9.375-3.291l-26.669-21.352c-12.94-10.3-17.976-27.771-12.499-43.449 5.466-15.655 20.293-26.175 36.896-26.175h23.296c16.602 0 31.43 10.52 36.896 26.178 5.476 15.674.44 33.146-12.532 43.472l-26.637 21.326c-2.741 2.194-6.058 3.291-9.376 3.291z" fill="#b83b00"/><path d="m292.012 423.117c12.973-10.326 18.008-27.797 12.532-43.472-5.467-15.658-20.294-26.178-36.896-26.178h-11.648v94.267c3.318 0 6.635-1.097 9.375-3.291z" fill="#9d0000"/></g></svg>