<svg id="Capa_1" enable-background="new 0 0 497 497" height="512" viewBox="0 0 497 497" width="512" xmlns="http://www.w3.org/2000/svg"><g><path d="m488.193 48.719c-10.162-10.162-26.03-11.581-38.01-3.642-9.31 6.169-19.287 10.919-29.625 14.258 2.645-7.65 4.8-15.526 6.414-23.596 3.698-18.505-10.586-35.739-29.456-35.739-14.371 0-26.595 10.217-29.453 24.302-11.297 55.668-60.617 97.698-119.569 97.698s-108.272-42.03-119.569-97.698c-2.858-14.085-15.081-24.302-29.453-24.302-18.87 0-33.154 17.234-29.455 35.738 1.612 8.066 3.766 15.938 6.409 23.584-10.331-3.339-20.304-8.08-29.609-14.245-11.98-7.938-27.848-6.52-38.01 3.642-13.343 13.344-11.257 35.63 4.443 46.099 31.119 20.75 67.268 30.878 103.305 30.41 33.184 34.945 80.058 56.772 131.939 56.772 51.877 0 98.749-21.824 131.933-56.765 36.043.473 72.199-9.663 103.323-30.417 15.7-10.469 17.786-32.755 4.443-46.099z" fill="#e8b5b1"/><g><path d="m62.38 149.826c-10.482 2.358-18.697 10.573-21.055 21.055-6.114 27.177 1.395 56.798 22.55 77.953 25.353 25.353 62.865 31.107 93.759 17.301 13.806-30.894 8.053-68.406-17.301-93.759-21.155-21.155-50.776-28.664-77.953-22.55z" fill="#ce857a"/><path d="m455.676 170.882c-2.358-10.482-10.573-18.697-21.055-21.055-27.177-6.114-56.798 1.395-77.953 22.55-25.353 25.353-31.107 62.865-17.301 93.759 30.894 13.806 68.406 8.052 93.759-17.301 21.155-21.155 28.664-50.776 22.55-77.953z" fill="#d6948c"/></g><g fill="#ff8e9e"><path d="m74.658 183.166c-4.092 31.75 22.887 58.92 54.868 54.889 4.007-32.078-23.059-58.934-54.868-54.889z"/><path d="m422.342 183.166c-31.823-4.045-58.873 22.828-54.869 54.889 32.116 4.038 58.944-23.258 54.869-54.889z"/></g><path d="m280.202 76.681-10.772 5.121-3.996-11.238c-5.226-14.696-26.01-14.696-31.236 0l-3.998 11.238-10.773-5.121c-14.087-6.696-28.784 8-22.088 22.088l5.121 10.773h94.708l5.121-10.772c6.697-14.089-8-28.785-22.087-22.089z" fill="#ce857a"/><g><g><path d="m378.828 257.621c-17.476-21.481-18.194-40.966-18.387-59.839-.499-48.865-32.778-90.525-77.037-105.169-10.601-3.507-21.886-5.471-33.59-5.606-62.429-.716-113.262 49.675-113.262 111.94 0 20.793-3.079 39.757-18.676 59.037-23.325 28.835-37.297 65.547-37.298 105.523 0 1.136.011 2.27.034 3.401 1.443 72.484 61.526 130.092 134.024 130.092h67.728c.38 0 .757-.011 1.136-.014 71.989-.599 131.457-57.977 132.887-130.082.022-1.129.034-2.26.034-3.394 0-40.146-14.09-76.999-37.593-105.889z" fill="#d6948c"/></g><g><path d="m150.613 366.909c-.023-1.131-.034-2.264-.034-3.401 0-39.977 13.972-76.689 37.298-105.523 15.597-19.281 18.676-38.244 18.676-59.037 0-49.568 32.216-91.61 76.852-106.334-10.601-3.507-21.886-5.471-33.59-5.606-62.429-.716-113.262 49.675-113.262 111.94 0 20.793-3.079 39.757-18.676 59.037-23.325 28.835-37.297 65.547-37.298 105.523 0 1.136.011 2.27.034 3.401 1.442 72.483 61.525 130.091 134.023 130.091h67.728c.38 0 .757-.011 1.136-.014-71.987-.599-131.452-57.974-132.887-130.077z" fill="#ce857a"/></g></g><g><path d="m241 337.5h15v159.5h-15z" fill="#ac6757"/><circle cx="248.5" cy="337.5" fill="#ea5b70" r="35"/></g><g fill="#ce857a"><ellipse cx="168.382" cy="293" rx="28.882" ry="23"/><ellipse cx="328.5" cy="293" rx="29" ry="23"/></g><g fill="#313d40"><path d="m186.051 251.5c-4.142 0-7.5 3.358-7.5 7.5v12c0 4.142 3.358 7.5 7.5 7.5s7.5-3.358 7.5-7.5v-12c0-4.142-3.358-7.5-7.5-7.5z"/><path d="m310.949 251.5c-4.142 0-7.5 3.358-7.5 7.5v12c0 4.142 3.358 7.5 7.5 7.5s7.5-3.358 7.5-7.5v-12c0-4.142-3.358-7.5-7.5-7.5z"/></g></g></svg>